<?xml version="1.0" standalone="no"?>
<!DOCTYPE svg PUBLIC "-//W3C//DTD SVG 20010904//EN"
 "http://www.w3.org/TR/2001/REC-SVG-20010904/DTD/svg10.dtd">
<svg version="1.0" xmlns="http://www.w3.org/2000/svg"
 width="96.000000pt" height="96.000000pt" viewBox="0 0 96.000000 96.000000"
 preserveAspectRatio="xMidYMid meet">

<g transform="translate(0.000000,96.000000) scale(0.100000,-0.100000)"
fill="#000000" stroke="none">
<path d="M306 939 c-204 -83 -330 -303 -297 -519 25 -159 101 -274 235 -354
78 -47 86 -46 86 8 0 41 -3 46 -43 69 -60 36 -134 118 -165 185 -24 50 -27 69
-27 157 0 94 2 105 33 168 30 61 121 167 143 167 18 0 8 -100 -31 -328 -22
-128 -40 -237 -40 -243 0 -6 17 -9 42 -7 l42 3 24 153 c14 84 28 150 32 145 5
-4 29 -74 54 -154 44 -141 46 -152 46 -268 l0 -121 40 0 40 0 0 122 c0 121 1
125 51 276 28 84 53 152 55 150 2 -2 12 -62 24 -133 29 -188 24 -175 70 -175
22 0 40 4 40 10 0 5 -18 118 -40 251 -40 242 -48 319 -31 319 23 0 117 -110
145 -169 28 -60 31 -75 31 -161 -1 -75 -6 -107 -24 -152 -26 -67 -104 -157
-167 -194 -41 -24 -44 -29 -44 -70 0 -54 8 -55 86 -8 225 135 304 404 187 644
-48 100 -180 211 -290 244 -23 7 -23 7 -23 -116 0 -121 -1 -126 -52 -286 -28
-89 -55 -159 -59 -155 -4 5 -30 79 -58 165 -50 153 -51 159 -51 277 0 67 -3
121 -7 120 -5 0 -30 -9 -57 -20z"/>
</g>
</svg>
